<svg width="554" height="407" viewBox="0 0 554 407" fill="none" xmlns="http://www.w3.org/2000/svg">
<g clip-path="url(#clip0)">
<path d="M27.6 13.0154C29.8091 13.0154 31.6 11.2245 31.6 9.01538C31.6 6.80624 29.8091 5.01538 27.6 5.01538C25.3908 5.01538 23.6 6.80624 23.6 9.01538C23.6 11.2245 25.3908 13.0154 27.6 13.0154Z" fill="#00A087"/>
<path d="M185.7 282.415C187.909 282.415 189.7 280.625 189.7 278.415C189.7 276.206 187.909 274.415 185.7 274.415C183.491 274.415 181.7 276.206 181.7 278.415C181.7 280.625 183.491 282.415 185.7 282.415Z" fill="#E96A89"/>
<path d="M525.1 51.6154C527.309 51.6154 529.1 49.8245 529.1 47.6154C529.1 45.4062 527.309 43.6154 525.1 43.6154C522.891 43.6154 521.1 45.4062 521.1 47.6154C521.1 49.8245 522.891 51.6154 525.1 51.6154Z" fill="#00A087"/>
<path d="M270.2 53.7154C272.409 53.7154 274.2 51.9245 274.2 49.7154C274.2 47.5063 272.409 45.7154 270.2 45.7154C267.991 45.7154 266.2 47.5063 266.2 49.7154C266.2 51.9245 267.991 53.7154 270.2 53.7154Z" fill="#FFCB4D"/>
<path d="M251.4 170.015C253.609 170.015 255.4 168.225 255.4 166.015C255.4 163.806 253.609 162.015 251.4 162.015C249.191 162.015 247.4 163.806 247.4 166.015C247.4 168.225 249.191 170.015 251.4 170.015Z" fill="#FFCB4D"/>
<path d="M118.098 95.4683L118.043 102.768L125.443 102.825L125.498 95.5247L118.098 95.4683Z" fill="#E96A89"/>
<path d="M389.409 195.732L389.353 203.032L396.753 203.088L396.809 195.788L389.409 195.732Z" fill="#00A087"/>
<path d="M365.171 3.91809L365.115 11.2181L372.515 11.2744L372.571 3.97444L365.171 3.91809Z" fill="#04A4D1"/>
<path d="M63.8 68.4154C66.3 66.0154 66.1 63.4154 66 61.3154C65.9 59.3154 65.9 58.2154 67.1 57.1154C68.3 55.9154 69.4 56.0154 71.4 56.1154C73.5 56.2154 76.2 56.4154 78.6 54.0154C81.1 51.6154 80.9 49.0154 80.8 46.9154C80.7 44.9154 80.7 43.8154 81.9 42.7154L79.2 40.0154C76.7 42.4154 76.9 45.0154 77 47.1154C77.1 49.1154 77.1 50.2154 75.9 51.3154C74.7 52.5154 73.6 52.4154 71.6 52.3154C69.5 52.2154 66.8 52.0154 64.4 54.4154C61.9 56.8154 62.1 59.4154 62.2 61.5154C62.3 63.5154 62.3 64.6154 61.1 65.7154C59.9 66.9154 58.8 66.8154 56.8 66.7154C54.7 66.6154 52 66.4154 49.6 68.8154L52.3 71.5154C53.5 70.3154 54.6 70.4154 56.6 70.5154C58.7 70.6154 61.3 70.8154 63.8 68.4154Z" fill="#FFCB4D"/>
<path d="M505.4 201.015C507.9 198.615 507.7 196.015 507.6 193.915C507.5 191.915 507.5 190.815 508.7 189.715C509.9 188.515 511 188.615 513 188.715C515.1 188.815 517.8 189.015 520.2 186.615C522.7 184.215 522.5 181.615 522.4 179.515C522.3 177.515 522.3 176.415 523.5 175.315L520.8 172.615C518.3 175.015 518.5 177.615 518.6 179.715C518.7 181.715 518.7 182.815 517.5 183.915C516.3 185.115 515.2 185.015 513.2 184.915C511.1 184.815 508.4 184.615 506 187.015C503.5 189.415 503.7 192.015 503.8 194.115C503.9 196.115 503.9 197.215 502.7 198.315C501.5 199.515 500.4 199.415 498.4 199.315C496.3 199.215 493.6 199.015 491.2 201.415L493.9 204.115C495.1 202.915 496.2 203.015 498.2 203.115C500.3 203.215 502.9 203.415 505.4 201.015Z" fill="#E96A89"/>
<path d="M172.6 138.015C170.1 140.415 170.3 143.015 170.4 145.115C170.5 147.115 170.5 148.215 169.3 149.315C168.1 150.515 167 150.415 165 150.315C162.9 150.215 160.2 150.015 157.8 152.415C155.3 154.815 155.5 157.415 155.6 159.515C155.7 161.515 155.7 162.615 154.5 163.715L157.2 166.415C159.7 164.015 159.5 161.415 159.4 159.315C159.3 157.315 159.3 156.215 160.5 155.115C161.7 154.015 162.8 154.015 164.8 154.115C166.9 154.215 169.6 154.415 172 152.015C174.5 149.615 174.3 147.015 174.2 144.915C174.1 142.915 174.1 141.815 175.3 140.715C176.5 139.515 177.6 139.615 179.6 139.715C181.7 139.815 184.4 140.015 186.8 137.615L184.1 134.915C182.9 136.115 181.8 136.015 179.8 135.915C177.7 135.715 175.1 135.615 172.6 138.015Z" fill="#04A4D1"/>
<path d="M453.1 18.4154C450.6 20.8154 450.8 23.4154 450.9 25.5154C451 27.5154 451 28.6154 449.8 29.7154C448.6 30.9154 447.5 30.8154 445.5 30.7154C443.4 30.6154 440.7 30.4154 438.3 32.8154C435.8 35.2154 436 37.8154 436.1 39.9154C436.2 41.9154 436.2 43.0154 435 44.1154L437.7 46.8154C440.2 44.4154 440 41.8154 439.9 39.7154C439.8 37.7154 439.8 36.6154 441 35.5154C442.2 34.3154 443.3 34.4154 445.3 34.5154C447.4 34.6154 450.1 34.8154 452.5 32.4154C455 30.0154 454.8 27.4154 454.7 25.3154C454.6 23.3154 454.6 22.2154 455.8 21.1154C457 19.9154 458.1 20.0154 460.1 20.1154C462.2 20.2154 464.9 20.4154 467.3 18.0154L464.6 15.3154C463.4 16.5154 462.3 16.4154 460.3 16.3154C458.2 16.2154 455.6 16.0154 453.1 18.4154Z" fill="#FFCB4D"/>
<path d="M211 38.6154C208.6 36.2154 205.9 36.3154 203.8 36.4154C201.8 36.5154 200.7 36.5154 199.5 35.3154C198.3 34.1154 198.3 33.0154 198.5 31.1154C198.6 29.0154 198.8 26.4154 196.4 23.9154C194 21.5154 191.3 21.6154 189.2 21.7154C187.2 21.8154 186.1 21.8154 184.9 20.6154L182.1 23.3154C184.5 25.7154 187.2 25.6154 189.3 25.5154C191.3 25.4154 192.4 25.4154 193.6 26.6154C194.8 27.8154 194.8 28.9154 194.6 30.8154C194.5 32.9154 194.3 35.5154 196.7 38.0154C199.1 40.4154 201.8 40.3154 203.9 40.2154C205.9 40.1154 207 40.1154 208.2 41.3154C209.4 42.5154 209.4 43.6154 209.2 45.5154C209.1 47.6154 208.9 50.2154 211.3 52.7154L214.1 50.0154C212.9 48.8154 212.9 47.7154 213.1 45.8154C213.2 43.7154 213.4 41.1154 211 38.6154Z" fill="#E96A89"/>
<path d="M33.1 240.115C35.5 242.515 38.2 242.415 40.3 242.315C42.3 242.215 43.4 242.215 44.6 243.415C45.8 244.615 45.8 245.715 45.6 247.615C45.5 249.715 45.3 252.315 47.7 254.815C50.1 257.215 52.8 257.115 54.9 257.015C56.9 256.915 58 256.915 59.2 258.115L62 255.415C59.6 253.015 56.9 253.115 54.8 253.215C52.8 253.315 51.7 253.315 50.5 252.115C49.3 250.915 49.3 249.815 49.5 247.915C49.6 245.815 49.8 243.215 47.4 240.715C45 238.315 42.3 238.415 40.2 238.515C38.2 238.615 37.1 238.615 35.9 237.415C34.7 236.215 34.7 235.115 34.9 233.215C35 231.115 35.2 228.515 32.8 226.015L30 228.715C31.2 229.915 31.2 231.015 31 232.915C30.8 235.115 30.6 237.715 33.1 240.115Z" fill="#00A087"/>
<path d="M538.8 404.615C541.12 404.615 543 402.735 543 400.415C543 398.096 541.12 396.215 538.8 396.215C536.48 396.215 534.6 398.096 534.6 400.415C534.6 402.735 536.48 404.615 538.8 404.615Z" fill="#00A087"/>
<path d="M373.1 122.115C375.42 122.115 377.3 120.235 377.3 117.915C377.3 115.596 375.42 113.715 373.1 113.715C370.78 113.715 368.9 115.596 368.9 117.915C368.9 120.235 370.78 122.115 373.1 122.115Z" fill="#E96A89"/>
<path d="M17.2 364.015C19.5196 364.015 21.4 362.135 21.4 359.815C21.4 357.496 19.5196 355.615 17.2 355.615C14.8804 355.615 13 357.496 13 359.815C13 362.135 14.8804 364.015 17.2 364.015Z" fill="#00A087"/>
<path d="M284.4 361.915C286.72 361.915 288.6 360.035 288.6 357.715C288.6 355.396 286.72 353.515 284.4 353.515C282.08 353.515 280.2 355.396 280.2 357.715C280.2 360.035 282.08 361.915 284.4 361.915Z" fill="#FFCB4D"/>
<path d="M304.2 239.915C306.52 239.915 308.4 238.035 308.4 235.715C308.4 233.396 306.52 231.515 304.2 231.515C301.88 231.515 300 233.396 300 235.715C300 238.035 301.88 239.915 304.2 239.915Z" fill="#FFCB4D"/>
<path d="M436.23 302.079L436.171 309.679L443.871 309.738L443.93 302.138L436.23 302.079Z" fill="#E96A89"/>
<path d="M151.889 196.903L151.831 204.503L159.531 204.563L159.589 196.963L151.889 196.903Z" fill="#00A087"/>
<path d="M177.285 398.053L177.226 405.653L184.926 405.713L184.985 398.113L177.285 398.053Z" fill="#04A4D1"/>
<path d="M500.9 338.115C498.3 340.615 498.4 343.415 498.5 345.615C498.6 347.715 498.6 348.815 497.4 350.015C496.2 351.215 495 351.215 492.9 351.115C490.7 351.015 487.9 350.815 485.3 353.315C482.7 355.815 482.8 358.615 482.9 360.815C483 362.915 483 364.015 481.8 365.215L484.7 368.115C487.3 365.615 487.2 362.815 487.1 360.615C487 358.515 487 357.415 488.2 356.215C489.4 355.015 490.6 355.015 492.7 355.115C494.9 355.215 497.7 355.415 500.3 352.915C502.9 350.415 502.8 347.615 502.7 345.415C502.6 343.315 502.6 342.215 503.8 341.015C505 339.815 506.2 339.815 508.3 339.915C510.5 340.015 513.3 340.215 515.9 337.715L513 334.815C511.8 336.015 510.6 336.015 508.5 335.915C506.3 335.815 503.5 335.615 500.9 338.115Z" fill="#FFCB4D"/>
<path d="M37.9 199.015C35.3 201.515 35.4 204.315 35.5 206.515C35.6 208.615 35.6 209.715 34.4 210.915C33.2 212.115 32 212.115 29.9 212.015C27.7 211.915 24.9 211.715 22.3 214.215C19.7 216.715 19.8 219.515 19.9 221.715C20 223.815 20 224.915 18.8 226.115L21.7 229.015C24.3 226.515 24.2 223.715 24.1 221.515C24 219.415 24 218.315 25.2 217.115C26.4 215.915 27.6 215.915 29.7 216.015C31.9 216.115 34.7 216.315 37.3 213.815C39.9 211.315 39.8001 208.515 39.7001 206.315C39.6 204.215 39.6 203.115 40.8 201.915C42 200.715 43.2 200.715 45.3 200.815C47.5 200.915 50.3001 201.115 52.9001 198.615L50 195.715C48.8 196.915 47.6 196.915 45.5 196.815C43.3 196.715 40.5 196.515 37.9 199.015Z" fill="#E96A89"/>
<path d="M386.8 265.215C389.4 262.715 389.3 259.915 389.2 257.715C389.1 255.615 389.1 254.515 390.3 253.315C391.5 252.115 392.7 252.115 394.8 252.215C397 252.315 399.8 252.515 402.4 250.015C405 247.515 404.9 244.715 404.8 242.515C404.7 240.415 404.7 239.315 405.9 238.115L403 235.215C400.4 237.715 400.5 240.515 400.6 242.715C400.7 244.815 400.7 245.915 399.5 247.115C398.3 248.315 397.1 248.315 395 248.215C392.8 248.115 390 247.915 387.4 250.415C384.8 252.915 384.9 255.715 385 257.915C385.1 260.015 385.1 261.115 383.9 262.315C382.7 263.515 381.5 263.515 379.4 263.415C377.2 263.315 374.4 263.115 371.8 265.615L374.7 268.515C375.9 267.315 377.1 267.315 379.2 267.415C381.4 267.515 384.2 267.715 386.8 265.215Z" fill="#04A4D1"/>
<path d="M92.7 390.515C95.3 388.015 95.2 385.215 95.1 383.015C95 380.915 95 379.815 96.2 378.615C97.4 377.415 98.6 377.415 100.7 377.515C102.9 377.615 105.7 377.815 108.3 375.315C110.9 372.815 110.8 370.015 110.7 367.815C110.6 365.715 110.6 364.615 111.8 363.415L108.9 360.515C106.3 363.015 106.4 365.815 106.5 368.015C106.6 370.115 106.6 371.215 105.4 372.415C104.2 373.615 103 373.615 100.9 373.515C98.7 373.415 95.9 373.215 93.3 375.715C90.7 378.215 90.8 381.015 90.9 383.215C91 385.315 91 386.415 89.8 387.615C88.6 388.815 87.4 388.815 85.3 388.715C83.1 388.615 80.3 388.415 77.7 390.915L80.6 393.815C81.8 392.615 83 392.615 85.1 392.715C87.3 392.815 90.1 393.015 92.7 390.515Z" fill="#FFCB4D"/>
<path d="M346.6 369.315C349.2 371.915 351.9 371.715 354.1 371.615C356.2 371.515 357.3 371.515 358.6 372.715C359.8 373.915 359.8 375.115 359.7 377.115C359.6 379.315 359.4 382.015 361.9 384.615C364.5 387.215 367.2 387.015 369.4 386.915C371.5 386.815 372.6 386.815 373.9 388.015L376.8 385.215C374.2 382.615 371.5 382.815 369.3 382.915C367.2 383.015 366.1 383.015 364.8 381.815C363.5 380.615 363.6 379.415 363.7 377.415C363.8 375.215 364 372.515 361.5 369.915C358.9 367.315 356.2 367.515 354 367.615C351.9 367.715 350.8 367.715 349.5 366.515C348.3 365.315 348.3 364.115 348.4 362.115C348.5 359.915 348.7 357.215 346.2 354.615L343.3 357.415C344.5 358.615 344.5 359.815 344.4 361.815C344.2 364.015 344 366.815 346.6 369.315Z" fill="#E96A89"/>
<path d="M533.1 158.115C530.5 155.515 527.8 155.715 525.6 155.815C523.5 155.915 522.4 155.915 521.1 154.715C519.9 153.515 519.9 152.315 520 150.315C520.1 148.115 520.3 145.415 517.8 142.815C515.2 140.215 512.5 140.415 510.3 140.515C508.2 140.615 507.1 140.615 505.8 139.415L502.9 142.215C505.5 144.815 508.2 144.615 510.4 144.515C512.5 144.415 513.6 144.415 514.9 145.615C516.1 146.815 516.1 148.015 516 150.015C515.9 152.215 515.7 154.915 518.2 157.515C520.8 160.115 523.5 159.915 525.7 159.815C527.8 159.715 528.9 159.715 530.2 160.915C531.4 162.115 531.4 163.315 531.3 165.315C531.2 167.515 531 170.215 533.5 172.815L536.4 170.015C535.2 168.815 535.2 167.615 535.3 165.615C535.5 163.415 535.7 160.715 533.1 158.115Z" fill="#00A087"/>
<path d="M529.8 101.915C529.8 103.515 528.5 104.815 526.9 104.815C525.3 104.815 524 103.515 524 101.915C524 100.315 525.3 99.0154 526.9 99.0154C528.5 99.0154 529.8 100.315 529.8 101.915Z" stroke="white" stroke-width="0.8878" stroke-miterlimit="10" stroke-linecap="round"/>
<path opacity="0.27" d="M478.1 359.515C502.18 359.515 521.7 357.859 521.7 355.815C521.7 353.772 502.18 352.115 478.1 352.115C454.02 352.115 434.5 353.772 434.5 355.815C434.5 357.859 454.02 359.515 478.1 359.515Z" fill="#101313"/>
<path opacity="0.27" d="M129.9 359.515C153.98 359.515 173.5 357.859 173.5 355.815C173.5 353.772 153.98 352.115 129.9 352.115C105.82 352.115 86.3 353.772 86.3 355.815C86.3 357.859 105.82 359.515 129.9 359.515Z" fill="#101313"/>
<path d="M469.3 276.315L476.5 288.115C476.5 288.115 472.3 299.715 470.9 310.115C469.5 320.615 461.5 345.415 461.8 348.415C462 351.415 480.1 350.615 485.9 348.415C485.9 348.415 477.7 347.215 476 343.015C474.5 339.215 481.5 325.015 486.1 312.315C490.7 299.615 500 288.115 488 271.715C476 255.515 469.3 276.315 469.3 276.315Z" fill="#F6A294"/>
<path d="M465.2 329.215L480.9 330.215C480.9 330.215 477.2 340.715 479.1 343.515C481 346.415 485.4 345.815 487.9 350.215L488.4 353.615L459.7 350.915L465.2 329.215Z" fill="#34292A"/>
<path d="M510.9 278.515L518.1 290.315C518.1 290.315 513.9 301.915 512.5 312.315C511.1 322.815 503.1 347.615 503.4 350.615C503.6 353.615 521.7 352.815 527.5 350.615C527.5 350.615 519.3 349.415 517.6 345.215C516.1 341.415 523.1 327.215 527.7 314.515C532.3 301.815 541.6 290.315 529.6 273.915C517.6 257.715 510.9 278.515 510.9 278.515Z" fill="#F6A294"/>
<path d="M509.7 157.715C509.7 157.715 516.7 157.515 519.2 163.215C521.7 168.915 518.8 178.015 522 183.015C525.2 187.915 530.1 194.415 525.5 201.415C520.9 208.415 499.4 208.115 496.9 208.315C494.4 208.515 484.7 205.615 483.4 204.515C482.2 203.415 475.1 196.415 473.8 193.915C472.5 191.315 471.6 185.015 472.1 183.015C472.6 180.915 475 175.715 478.6 171.715C482.3 167.515 509.7 157.715 509.7 157.715Z" fill="#391C0C"/>
<path d="M520.2 196.215C520.2 196.215 524.8 198.515 527.8 201.215C530.7 203.915 542.2 209.815 544.8 211.015C547.4 212.115 547.4 212.115 547.4 212.115C547.4 212.115 547.6 206.615 548.4 202.715C549.2 198.815 549.3 187.615 549 185.215C549 185.215 556.1 185.915 556.9 188.415C557.7 190.915 560.4 222.715 552.7 224.415C545 226.115 521.7 213.615 520.1 211.715C518.3 209.815 520.2 196.215 520.2 196.215Z" fill="#F6A294"/>
<path d="M481.3 188.515C481.3 188.515 514 190.515 520.2 195.015C526.4 199.515 520.1 214.315 516.7 221.915C513.3 229.515 502.7 237.415 500.2 240.915C500.2 240.915 476.7 243.615 469.6 232.815C462.5 222.015 481.3 188.515 481.3 188.515Z" fill="#CE2828"/>
<path d="M512.9 164.115C512.9 164.115 513.6 176.615 513.8 178.515C513.9 180.415 511.8 187.315 508.4 187.515C505 187.715 503.9 187.015 504.1 188.415C504.3 189.715 504.8 193.015 506.8 195.315C508.8 197.515 507.8 202.415 504.2 205.315C500.6 208.215 496.3 196.515 494.3 191.915C494.3 191.915 491.8 190.215 493.7 189.715C495.6 189.215 495.5 186.915 495.1 184.515C494.7 182.115 489.5 162.615 501.2 161.015C512.8 159.415 512.9 164.115 512.9 164.115Z" fill="#F6A294"/>
<path d="M481.3 236.515L500.3 240.915C500.3 240.915 520.2 259.115 524.9 266.215L530.8 273.115C530.8 273.115 516.5 284.615 506 287.115C495.5 289.615 487 292.415 473 293.215C458.9 293.915 455.1 282.415 455.1 282.415L467.4 231.515C467.2 231.515 475.4 236.915 481.3 236.515Z" fill="black"/>
<path d="M500.7 152.215C503.5 151.915 514.7 153.315 513.6 162.715C512.5 172.115 501.6 168.315 497 170.215C492.3 172.215 495.5 178.115 496.4 181.215C497.3 184.315 496.3 188.915 492 189.415C487.7 189.915 481.4 188.515 481.4 188.515L479.6 170.815C479.5 170.815 481.7 154.615 500.7 152.215Z" fill="#391C0C"/>
<path d="M519 194.315C519 194.315 514.5 224.615 510.7 230.315C510.7 230.315 514.2 230.715 516.9 227.915C519.7 225.115 531.2 197.415 519 194.315Z" fill="#B6B6B7"/>
<path d="M484.2 188.215C484.2 188.215 470.3 221.215 464.6 227.815C464.6 227.815 473.4 227.715 477.4 224.315C481.3 221.015 500.1 190.015 484.2 188.215Z" fill="#B6B6B7"/>
<path d="M548.8 185.215C548.8 185.215 547.5 182.215 547.1 180.815C546.7 179.415 545.5 176.815 545.5 176.815C545.5 176.815 547.4 177.215 547.8 178.315C548.2 179.415 549 179.315 549 179.315C549 179.315 549.1 174.615 548.5 172.715C547.9 170.815 550.1 173.615 550.3 175.215C550.4 176.715 551 178.615 551 178.615C551 178.615 551 172.915 550.5 171.315C550.5 171.315 551.7 172.615 552.1 175.315C552.5 178.015 552.5 178.015 552.5 178.015C552.5 178.015 553.2 173.315 552.5 171.415C552.5 171.415 553.8 173.415 554.1 175.515C554.4 177.615 554.4 178.715 554.4 178.715C554.4 178.715 555.7 175.815 555.2 173.815C555.2 173.815 556.2 176.915 556.2 178.315C556.1 179.715 557.5 182.415 557 184.015C556.5 185.615 556.4 187.515 556.4 187.515L548.8 185.215Z" fill="#F6A294"/>
<path d="M509.2 175.415C509.2 175.415 511.7 179.815 509.7 180.015" stroke="#593D3D" stroke-width="0.8878" stroke-miterlimit="10"/>
<path d="M509.5 182.815C509.5 182.815 507.7 184.415 506.3 182.415" stroke="#593D3D" stroke-width="0.8878" stroke-miterlimit="10"/>
<path d="M503.8 173.915C503.8 173.915 502.4 173.015 501.4 174.115" stroke="#593D3D" stroke-width="0.8878" stroke-miterlimit="10"/>
<path d="M513.6 172.915C513.6 172.915 512.2 172.015 511.2 173.115" stroke="#593D3D" stroke-width="0.8878" stroke-miterlimit="10"/>
<path d="M498.8 240.715L522.3 279.215" stroke="white" stroke-width="0.2959" stroke-miterlimit="10"/>
<path d="M493.4 239.415L510.1 285.815" stroke="white" stroke-width="0.2959" stroke-miterlimit="10"/>
<path d="M487.9 238.115L497.4 289.215" stroke="white" stroke-width="0.2959" stroke-miterlimit="10"/>
<path d="M481.3 236.515L484.9 291.915" stroke="white" stroke-width="0.2959" stroke-miterlimit="10"/>
<path d="M475.3 235.515L464.1 291.715" stroke="white" stroke-width="0.2959" stroke-miterlimit="10"/>
<path d="M506.8 331.415L522.5 332.415C522.5 332.415 518.8 342.915 520.7 345.715C522.6 348.615 527 348.015 529.5 352.415L530 355.815L501.3 353.115L506.8 331.415Z" fill="#34292A"/>
<path d="M110.6 162.215C110.6 162.215 114.1 159.615 113.7 156.815C113.3 153.915 111.4 154.915 111.4 154.915L108.9 157.515L110.6 162.215Z" fill="#F6A294"/>
<path d="M78.5 182.515C78.5 182.515 73.4 185.215 70.4 188.215C67.4 191.215 54.9 198.015 52.1 199.315C49.3 200.615 49.3 200.615 49.3 200.615C49.3 200.615 48.4 194.815 46.9 190.715C45.4 186.615 43.8 174.915 43.8 172.315C43.8 172.315 35.7 173.415 35.1 176.115C34.6 178.815 35.8 212.415 44.9 213.715C54 215.015 79.4 200.715 81 198.615C82.5 196.715 78.5 182.515 78.5 182.515Z" fill="#F6A294"/>
<path d="M43.5999 173.415C43.5999 173.415 44.6999 170.115 44.9999 168.615C45.2999 167.115 46.2999 164.315 46.2999 164.315C46.2999 164.315 44.1999 164.815 43.8999 166.015C43.5999 167.215 42.6999 167.115 42.6999 167.115C42.6999 167.115 41.9999 162.215 42.3999 160.115C42.7999 158.015 40.5999 161.215 40.6999 162.815C40.7999 164.415 40.3999 166.415 40.3999 166.415C40.3999 166.415 39.5999 160.515 39.9999 158.715C39.9999 158.715 38.7999 160.215 38.6999 163.015C38.5999 165.815 38.5999 165.815 38.5999 165.815C38.5999 165.815 37.0999 160.915 37.6999 158.815C37.6999 158.815 36.4999 161.015 36.3999 163.215C36.2999 165.415 36.4999 166.615 36.4999 166.615C36.4999 166.615 34.5999 163.715 34.8999 161.515C34.8999 161.515 34.0999 164.815 34.3999 166.315C34.6999 167.815 33.4999 170.715 34.2999 172.315C35.0999 174.015 35.3999 176.015 35.3999 176.015L43.5999 173.415Z" fill="#F6A294"/>
<path d="M132.4 247.015C132.4 247.015 128.2 271.615 129.2 277.715C130.2 283.915 149 301.115 149 301.115L153.5 260.315C153.6 260.315 151.9 239.815 132.4 247.015Z" fill="black"/>
<path d="M109.9 165.915C109.9 165.915 114.2 162.215 114.8 154.815C115.4 147.415 116.1 140.615 112.8 138.315C112.8 138.315 111.7 133.215 106.4 132.715C101 132.215 92.7 135.415 89.6 134.015C86.5 132.615 85.4 132.515 85.4 132.515L79.7 141.615C79.7 141.615 79.6 147.015 89.5 149.315C99.4 151.615 109.9 165.915 109.9 165.915Z" fill="#391C0C"/>
<path d="M125.8 170.415C125.8 170.415 87.9999 173.515 80.8999 179.015C73.7999 184.415 81.7999 202.315 87.4999 210.215C93.3999 218.415 107.8 233.815 110.7 237.715C110.7 237.715 137.4 243.215 145.2 230.415C150.3 222.115 125.8 170.415 125.8 170.415Z" fill="#CE2828"/>
<path d="M88.6 142.915C88.6 142.915 88.1 157.415 88 159.615C87.9 161.915 90.5 169.715 94.5 169.815C98.5 170.015 99.7 169.115 99.5 170.715C99.3 172.315 98.8 176.115 96.6 178.715C94.4 181.315 100.8 181.315 102.4 181.715C107.7 182.915 108.8 179.815 110.9 174.415L111.5 171.815C109.3 171.315 109.3 168.615 109.8 165.815C110.3 163.115 115.7 140.315 102.1 138.815C88.5 137.315 88.6 142.915 88.6 142.915Z" fill="#F6A294"/>
<path d="M93.1999 156.015C93.1999 156.015 90.3999 161.115 92.6999 161.315" stroke="#593D3D" stroke-width="0.8878" stroke-miterlimit="10"/>
<path d="M93 164.515C93 164.515 95.1 166.315 96.7 163.915" stroke="#593D3D" stroke-width="0.8878" stroke-miterlimit="10"/>
<path d="M99.1 156.715C99.1 156.715 100.7 155.615 101.9 156.815" stroke="#593D3D" stroke-width="0.8878" stroke-miterlimit="10"/>
<path d="M88.7 155.615C88.7 155.615 90.3 154.515 91.5 155.715" stroke="#593D3D" stroke-width="0.8878" stroke-miterlimit="10"/>
<path d="M117.2 171.315C117.2 171.315 114.1 168.615 111.6 171.915C109.1 175.315 105.3 180.115 102.8 180.815C100.3 181.515 101 182.215 101 182.215L106.3 187.115C106.3 187.115 115.7 176.715 117.2 171.315Z" fill="#AC1F25"/>
<path d="M99 173.715C99 173.715 97.7 176.015 98.2 178.415C98.6 180.815 101.4 181.315 101.4 181.315L96.8 186.015C96.8 186.015 94.3 185.015 94.2 179.815C94.2 174.615 96.5 173.615 96.5 173.615C96.5 173.615 98.2 172.315 99 173.715Z" fill="#AC1F25"/>
<path d="M125.8 170.415C125.8 170.415 131.5 169.015 140.2 172.815C148.9 176.615 149.4 189.515 149.4 189.515L147 196.015C147 196.015 140 203.815 133.1 192.315C133 192.115 125.8 170.415 125.8 170.415Z" fill="#CE2828"/>
<path d="M79.8999 179.915C79.8999 179.915 73.6999 182.315 71.0999 184.715C68.6999 187.015 60.9999 192.515 60.9999 192.515C60.9999 192.515 60.0999 205.415 66.4999 209.015C66.4999 209.015 81.1999 203.815 83.7999 199.115C86.4999 194.415 79.8999 179.915 79.8999 179.915Z" fill="#CE2828"/>
<path d="M100 145.315C100 145.315 103.1 149.915 105 151.315C106.9 152.715 105.6 158.215 106.5 159.315C107.4 160.315 107.5 158.915 108.8 157.515C110.1 156.215 111.5 154.115 112.3 154.715C113.2 155.415 114.1 142.615 107.9 138.615C101.8 134.615 92.2 135.815 89.2 139.415C86.2 143.015 86.9 145.715 86.9 145.715C86.9 145.715 90.7 147.815 100 145.315Z" fill="#391C0C"/>
<path d="M146.2 228.115C146.2 228.115 162.7 244.615 151.3 256.015C139.8 267.515 107.1 257.915 104.6 261.715C102.1 265.515 105.5 284.215 105.8 295.515C106 306.815 109.2 341.415 109.2 341.415L92.1 337.115L80.5 261.415C80.5 261.415 77.8 244.515 92.1 240.215C106.3 235.915 140.2 232.515 146.2 228.115Z" fill="black"/>
<path d="M108.4 334.015L91 331.015C91 331.015 93 342.215 90.4 344.615C87.8 346.915 83 345.215 79.4 349.015L78.2 352.215L110.3 356.815L108.4 334.015Z" fill="#34292A"/>
<path d="M90.1 175.515C90.1 175.515 89.9 213.615 98.3 223.215C98.3 223.215 93.7 223.015 91.5 220.715C89.3 218.515 79.1 198.715 78.6 189.715C78 180.715 77.8 175.615 90.1 175.515Z" fill="#B6B6B7"/>
<path d="M126.1 168.615C126.1 168.615 133.8 205.115 143.7 213.215C143.7 213.215 137.8 214.815 135.2 213.015C132.6 211.215 119.2 193.415 117.2 184.615C115.2 175.715 114 170.815 126.1 168.615Z" fill="#B6B6B7"/>
<path d="M413.6 47.7154C413.6 47.7154 413.1 43.9154 413 42.1154C412.9 40.4154 412.5 37.1154 412.5 37.1154C412.5 37.1154 414.5 38.1154 414.6 39.5154C414.7 40.9154 415.6 41.0154 415.6 41.0154C415.6 41.0154 417.2 35.7154 417.1 33.3154C417 30.9154 418.7 34.9154 418.3 36.7154C418 38.5154 418 40.8154 418 40.8154C418 40.8154 419.8 34.4154 419.8 32.3154C419.8 32.3154 420.7 34.2154 420.3 37.4154C419.9 40.6154 419.9 40.6154 419.9 40.6154C419.9 40.6154 422.2 35.5154 421.9 33.1154C421.9 33.1154 422.7 35.8154 422.4 38.3154C422.1 40.8154 421.7 42.0154 421.7 42.0154C421.7 42.0154 424 39.1154 424.1 36.7154C424.1 36.7154 424.3 40.5154 423.8 42.1154C423.3 43.7154 424 47.1154 422.9 48.8154C421.8 50.5154 421.1 52.6154 421.1 52.6154L413.6 47.7154Z" fill="#FFBE9F"/>
<path d="M350.4 18.7154C350.3 18.7154 350.1 18.8154 349.9 18.8154C346.8 19.5154 343.9 22.2154 342.9 25.1154C341.5 29.3154 345 30.8154 344 36.3154C343.8 37.6154 343 40.8154 340.4 43.2154C338.5 44.9154 337.6 44.4154 335.3 46.3154C334.6 46.9154 332.3 48.8154 331 52.1154C330.9 52.4154 329 57.4154 330.7 61.6154C332.6 66.3154 338.5 62.8154 348.4 67.9154C352.7 70.1154 355.5 72.7154 358.4 71.5154C360.6 70.6154 360.4 68.6154 362.6 68.0154C364.2 67.6154 365.7 68.2154 372.2 72.3154C375.5 74.3154 376.7 75.8154 377.2 75.4154C378.4 74.5154 372.3 66.5154 374.5 63.3154C376.2 60.8154 381.3 63.5154 382.8 61.1154C384.5 58.4154 378.6 54.1154 378.9 47.2154C379.2 42.3154 382.2 42.2154 383.1 36.7154C384.4 28.5154 379 21.6154 378.6 21.1154C377.8 20.1154 372.9 14.0154 366.5 14.1154C362.1 14.1154 356.8 17.6154 350.4 18.7154Z" fill="#391C0C"/>
<path d="M372.8 64.1154C372.8 64.1154 377.3 65.6154 381.5 67.9154C384.9 69.8154 394.5 74.7154 397.2 76.5154C399.9 78.3154 405.8 78.5154 405.8 78.5154C405.8 78.5154 407.1 72.1154 408.9 67.8154C410.7 63.4154 413.1 50.5154 413.2 47.6154C413.2 47.6154 421.3 49.9154 421.6 53.0154C422 56.1154 418.5 93.5154 409.2 93.9154C400 94.3154 370.5 84.7154 369.1 82.2154C367.7 79.7154 372.8 64.1154 372.8 64.1154Z" fill="#CE2828"/>
<path d="M313.2 88.0154C313.2 88.0154 317.8 58.6154 328.5 58.1154C339.2 57.6154 360.6 60.8154 371.3 65.1154C382 69.4154 389.3 79.0154 385.4 90.1154C381.5 101.215 375.4 106.615 375.4 106.615L313.2 88.0154Z" fill="#CE2828"/>
<path d="M349.7 26.5154C349.7 26.5154 348.5 41.6154 351 46.0154C353.5 50.4154 350.9 55.4154 347.6 57.0154C344.3 58.6154 344.3 58.6154 344.3 58.6154C344.3 58.6154 353.7 71.1154 366.2 64.3154C366.2 64.3154 362.7 57.0154 364.1 53.8154C365.6 50.6154 365.6 50.6154 365.6 50.6154C365.6 50.6154 371.2 47.6154 372.2 38.0154C373.2 28.4154 375.3 20.9154 362.2 18.9154C349.1 16.9154 349.7 26.5154 349.7 26.5154Z" fill="#FFBE9F"/>
<path d="M300.5 87.3154C300.5 87.3154 317.2 59.0154 326.8 58.4154C326.8 58.4154 325.7 81.0154 321.9 88.2154C318.1 95.5154 300.5 87.3154 300.5 87.3154Z" fill="#CE2828"/>
<path d="M336.5 57.5154C336.5 57.5154 329.8 78.3154 330.2 89.9154L338 90.8154C338 90.8154 344.4 62.3154 345.9 59.3154C347.4 56.3154 339.7 55.7154 336.5 57.5154Z" fill="#B6B6B7"/>
<path d="M375.6 65.6154C375.6 65.6154 372.7 92.6154 367.5 103.115L357.4 98.3154C357.4 98.3154 366 66.5154 365.7 63.1154C365.3 59.5154 373.2 62.4154 375.6 65.6154Z" fill="#B6B6B7"/>
<path d="M362.6 36.6154C362.6 36.6154 365.2 42.3154 362.3 41.8154" stroke="#593D3D" stroke-width="0.8878" stroke-miterlimit="10"/>
<path d="M359 45.1154C359 45.1154 360.9 46.8154 363 45.3154" stroke="#593D3D" stroke-width="0.8878" stroke-miterlimit="10"/>
<path d="M356.3 40.6154C358.343 40.6154 360 38.9588 360 36.9154C360 34.8719 358.343 33.2154 356.3 33.2154C354.257 33.2154 352.6 34.8719 352.6 36.9154C352.6 38.9588 354.257 40.6154 356.3 40.6154Z" stroke="#593D3D" stroke-width="0.8878" stroke-miterlimit="10"/>
<path d="M371.8 36.8154C372.2 38.8154 370.9 40.7154 368.9 41.1154C366.9 41.5154 365 40.2154 364.6 38.2154C364.2 36.2154 365.5 34.3154 367.5 33.9154C369.5 33.5154 371.4 34.8154 371.8 36.8154Z" stroke="#593D3D" stroke-width="0.8878" stroke-miterlimit="10"/>
<path d="M359.9 36.2154C359.9 36.2154 362.6 34.1154 364.7 36.2154" stroke="#593D3D" stroke-width="0.8878" stroke-miterlimit="10"/>
<path d="M300.1 4.1154C300.6 6.9154 298.8 9.5154 296 10.1154C293.2 10.6154 290.5 8.8154 290 6.1154C289.5 3.3154 291.3 0.715396 294.1 0.115396C296.8 -0.484604 299.5 1.3154 300.1 4.1154Z" stroke="white" stroke-width="0.8878" stroke-miterlimit="10" stroke-linecap="round"/>
<path d="M345.3 27.7154C346 30.7154 346.4 32.1154 347 32.3154C348.8 32.8154 351.1 27.4154 354 27.6154C356.4 27.8154 356.6 31.7154 359.2 32.0154C361.9 32.3154 364 28.1154 365.9 28.7154C367.4 29.1154 366.6 31.9154 368.5 32.9154C370.3 33.8154 373.6 32.9154 375 31.2154C377.4 28.2154 374.6 21.8154 369.8 18.9154C364.9 16.0154 359.1 17.4154 355.7 18.3154C351.6 19.3154 345.1 21.9154 344.8 25.1154C344.8 25.4154 345 26.1154 345.3 27.7154Z" fill="#391C0C"/>
<path d="M355.7 356.315L267.7 355.215L268 352.915L272.2 316.115H349.5L355.2 352.915L355.6 355.715L355.7 356.315Z" fill="#D0D1D4"/>
<path opacity="0.1" d="M355.6 355.715H311.7L267.7 355.215L268 352.915H355.2L355.6 355.715Z" fill="black"/>
<path d="M369.8 353.515H253V356.315H369.8V353.515Z" fill="#D0D1D4"/>
<path d="M481.2 94.6154C481.2 90.6154 477.9 87.3154 473.9 87.3154H147.8C143.7 87.3154 140.5 90.6154 140.5 94.6154V290.415H481.2V94.6154Z" fill="#101313"/>
<path d="M140.5 288.415V311.315C140.5 315.315 143.8 318.515 147.8 318.515H473.9C477.9 318.515 481.2 315.315 481.2 311.315V288.415H140.5Z" fill="#D0D1D4"/>
<path opacity="0.73" d="M468.8 112.915H154.6V275.515H468.8V112.915Z" fill="#ED2D2B"/>
<path opacity="0.1" d="M320.2 318.615L355.3 353.515L349.9 318.615H320.2Z" fill="black"/>
<path d="M163.7 120.915H394.3C395 120.915 395.6 121.515 395.6 122.315V264.915C395.6 265.715 395 266.315 394.3 266.315H163.7C163 266.315 162.4 265.715 162.4 264.915V122.315C162.3 121.515 162.9 120.915 163.7 120.915Z" fill="white"/>
<path d="M468.9 99.6154H154.7V112.915H468.9V99.6154Z" fill="white"/>
<path d="M432.4 125.915H459.2C459.3 125.915 459.4 126.015 459.4 126.115V128.015C459.4 128.115 459.3 128.215 459.2 128.215H432.4C432.3 128.215 432.2 128.115 432.2 128.015V126.115C432.2 126.015 432.3 125.915 432.4 125.915Z" fill="white"/>
<path d="M406.5 121.115H426C426.4 121.115 426.8 121.415 426.8 121.915V134.415C426.8 134.815 426.4 135.215 426 135.215H406.5C406.1 135.215 405.7 134.915 405.7 134.415V121.915C405.7 121.415 406 121.115 406.5 121.115Z" fill="white"/>
<path d="M432.4 121.115H459.2C459.3 121.115 459.4 121.215 459.4 121.315V123.215C459.4 123.315 459.3 123.415 459.2 123.415H432.4C432.3 123.415 432.2 123.315 432.2 123.215V121.315C432.2 121.215 432.3 121.115 432.4 121.115Z" fill="white"/>
<path d="M432.4 130.715H459.2C459.3 130.715 459.4 130.815 459.4 130.915V132.815C459.4 132.915 459.3 133.015 459.2 133.015H432.4C432.3 133.015 432.2 132.915 432.2 132.815V130.915C432.2 130.815 432.3 130.715 432.4 130.715Z" fill="white"/>
<path d="M432.4 156.315H459.2C459.3 156.315 459.4 156.415 459.4 156.515V158.415C459.4 158.515 459.3 158.615 459.2 158.615H432.4C432.3 158.615 432.2 158.515 432.2 158.415V156.515C432.2 156.415 432.3 156.315 432.4 156.315Z" fill="white"/>
<path d="M406.5 151.515H426C426.4 151.515 426.8 151.815 426.8 152.315V164.815C426.8 165.215 426.4 165.615 426 165.615H406.5C406.1 165.615 405.7 165.315 405.7 164.815V152.315C405.7 151.815 406 151.515 406.5 151.515Z" fill="white"/>
<path d="M432.4 151.515H459.2C459.3 151.515 459.4 151.615 459.4 151.715V153.615C459.4 153.715 459.3 153.815 459.2 153.815H432.4C432.3 153.815 432.2 153.715 432.2 153.615V151.715C432.2 151.615 432.3 151.515 432.4 151.515Z" fill="white"/>
<path d="M432.4 161.115H459.2C459.3 161.115 459.4 161.215 459.4 161.315V163.215C459.4 163.315 459.3 163.415 459.2 163.415H432.4C432.3 163.415 432.2 163.315 432.2 163.215V161.315C432.2 161.215 432.3 161.115 432.4 161.115Z" fill="white"/>
<path d="M432.4 185.315H459.2C459.3 185.315 459.4 185.415 459.4 185.515V187.415C459.4 187.515 459.3 187.615 459.2 187.615H432.4C432.3 187.615 432.2 187.515 432.2 187.415V185.515C432.2 185.415 432.3 185.315 432.4 185.315Z" fill="white"/>
<path d="M406.5 180.515H426C426.4 180.515 426.8 180.815 426.8 181.315V193.815C426.8 194.215 426.4 194.615 426 194.615H406.5C406.1 194.615 405.7 194.315 405.7 193.815V181.315C405.7 180.915 406 180.515 406.5 180.515Z" fill="white"/>
<path d="M432.4 180.515H459.2C459.3 180.515 459.4 180.615 459.4 180.715V182.615C459.4 182.715 459.3 182.815 459.2 182.815H432.4C432.3 182.815 432.2 182.715 432.2 182.615V180.715C432.2 180.615 432.3 180.515 432.4 180.515Z" fill="white"/>
<path d="M432.4 190.215H459.2C459.3 190.215 459.4 190.315 459.4 190.415V192.315C459.4 192.415 459.3 192.515 459.2 192.515H432.4C432.3 192.515 432.2 192.415 432.2 192.315V190.415C432.2 190.215 432.3 190.215 432.4 190.215Z" fill="white"/>
<path d="M432.4 214.415H459.2C459.3 214.415 459.4 214.515 459.4 214.615V216.515C459.4 216.615 459.3 216.715 459.2 216.715H432.4C432.3 216.715 432.2 216.615 432.2 216.515V214.615C432.2 214.515 432.3 214.415 432.4 214.415Z" fill="white"/>
<path d="M406.5 209.615H426C426.4 209.615 426.8 209.915 426.8 210.415V222.915C426.8 223.315 426.4 223.715 426 223.715H406.5C406.1 223.715 405.7 223.415 405.7 222.915V210.415C405.7 210.015 406 209.615 406.5 209.615Z" fill="white"/>
<path d="M432.4 209.615H459.2C459.3 209.615 459.4 209.715 459.4 209.815V211.715C459.4 211.815 459.3 211.915 459.2 211.915H432.4C432.3 211.915 432.2 211.815 432.2 211.715V209.815C432.2 209.715 432.3 209.615 432.4 209.615Z" fill="white"/>
<path d="M432.4 219.215H459.2C459.3 219.215 459.4 219.315 459.4 219.415V221.315C459.4 221.415 459.3 221.515 459.2 221.515H432.4C432.3 221.515 432.2 221.415 432.2 221.315V219.415C432.2 219.315 432.3 219.215 432.4 219.215Z" fill="white"/>
<path d="M432.4 241.815H459.2C459.3 241.815 459.4 241.915 459.4 242.015V243.915C459.4 244.015 459.3 244.115 459.2 244.115H432.4C432.3 244.115 432.2 244.015 432.2 243.915V242.015C432.2 241.915 432.3 241.815 432.4 241.815Z" fill="white"/>
<path d="M406.5 237.015H426C426.4 237.015 426.8 237.315 426.8 237.815V250.315C426.8 250.715 426.4 251.115 426 251.115H406.5C406.1 251.115 405.7 250.815 405.7 250.315V237.815C405.7 237.415 406 237.015 406.5 237.015Z" fill="white"/>
<path d="M432.4 237.015H459.2C459.3 237.015 459.4 237.115 459.4 237.215V239.115C459.4 239.215 459.3 239.315 459.2 239.315H432.4C432.3 239.315 432.2 239.215 432.2 239.115V237.215C432.2 237.115 432.3 237.015 432.4 237.015Z" fill="white"/>
<path d="M432.4 246.615H459.2C459.3 246.615 459.4 246.715 459.4 246.815V248.715C459.4 248.815 459.3 248.915 459.2 248.915H432.4C432.3 248.915 432.2 248.815 432.2 248.715V246.815C432.2 246.715 432.3 246.615 432.4 246.615Z" fill="white"/>
<path d="M310.4 315.315C316.42 315.315 321.3 310.48 321.3 304.515C321.3 298.551 316.42 293.715 310.4 293.715C304.38 293.715 299.5 298.551 299.5 304.515C299.5 310.48 304.38 315.315 310.4 315.315Z" fill="#454053"/>
<path d="M290.3 87.1154C290.3 87.1154 294.4 82.6154 299.1 82.7154C303.8 82.8154 304 85.1154 304 85.1154C304 85.1154 303.1 94.8154 302.5 96.0154C301.9 97.1154 300.4 90.7154 300.4 90.7154C300.4 90.7154 299.5 96.5154 299.2 96.7154C299 96.9154 298.1 91.4154 298.1 91.4154C298.1 91.4154 297.5 97.5154 296.6 97.1154C295.7 96.7154 294.5 91.6154 294.5 91.6154C294.5 91.6154 294.4 97.6154 293.4 96.7154C292.6 95.9154 287.9 89.2154 290.3 87.1154Z" fill="#FFBE9F"/>
</g>
<defs>
<clipPath id="clip0">
<rect width="553.5" height="406.2" fill="white"/>
</clipPath>
</defs>
</svg>
